<svg width="121" height="61" xmlns="http://www.w3.org/2000/svg">
  <path style="fill:#000;stroke:none;stroke-width:.110658;stroke-linecap:square" d="M15.2.9A14.6 14.6 0 0 0 .9 15.3v29.4c0 2 0 4 .8 5.8C3.7 56 9.2 60 15.1 60a14.8 14.8 0 0 0 15-14.9c.2-9 .1-18 0-27 0-2.3.3-4.8-.6-7.1A14.8 14.8 0 0 0 15.2.9Zm.3 14.8c.6 0 .2 1.2.3 1.7v28c-1 .2-.5-1-.6-1.5V15.7h.3zM31 .9c-.3 1.7-.1 3.6-.2 5.3V60c.4.6 1.4.2 2 .3h12.1c.6-.4.1-1.3.3-2V45.8c1-.2.4 1 .6 1.5V60c.3.6 1.3.2 1.9.3h12.2c.6-.4.2-1.3.3-2 0-5 0-10-.2-14.9a14.5 14.5 0 0 0-14.3-12.5c-.2-.7.5-.6 1-.7A14.7 14.7 0 0 0 60 17.6c.3-4.7.1-9.4.2-14V.9c-1.8-.2-3.6 0-5.3-.1h-9c-.3.5 0 1.4-.1 2v12.5c-1 .2-.5-1-.6-1.5V1c-.4-.5-1.3 0-2-.2H31zm29.8 0V15c.5.3 1.4 0 2 .1h12.5c.2 1-1 .5-1.5.6H61c-.5.4 0 1.3-.2 2V30c.4.6 1.3.1 1.9.3h13.1A15.6 15.6 0 0 1 62 45.7c-.5 0-1.4-.1-1.2.6V60c.3.5 1 .2 1.5.3a29.9 29.9 0 0 0 27.4-24.5c.7-3 .4-6 .5-9V1C90 .5 89 .9 88.4.8H61zm30.1 0c-.2 1.7 0 3.6 0 5.3V30c.3.6 1.2.1 1.9.3h13A15.3 15.3 0 0 1 91 45.8c-.5.4-.1 1.3-.3 2V60c.4.5 1.3 0 1.8.1a29.6 29.6 0 0 0 27.6-29.9V16.1c-.4-.6-1.3-.2-2-.3h-12.5c-.3-1 .9-.5 1.5-.6h12.7c.6-.3.2-1.3.3-1.9V1c-.4-.5-1.3 0-2-.2H91z"/>
  <path style="fill:none;stroke:#fff;stroke-width:1.00157;stroke-linecap:square;stroke-miterlimit:4;stroke-dasharray:none" d="M130 45a15 15 0 0 1-15 15 15 15 0 0 1-15-15" transform="translate(-99.5 .5)"/>
  <path style="fill:none;stroke:#fff;stroke-width:1.00157;stroke-linecap:square;stroke-miterlimit:4;stroke-dasharray:none" d="M130-15a15 15 0 0 1-15 15 15 15 0 0 1-15-15" transform="matrix(1 0 0 -1 -99.5 .5)"/>
  <path style="fill:none;stroke:#fff;stroke-width:1px;stroke-linecap:butt;stroke-linejoin:miter;stroke-opacity:1" d="M100 15v30m30-30v30m-15-30v30m15-30V0h15v15m15-15h-15m15 0v15" transform="translate(-99.5 .5)"/>
  <path style="fill:none;stroke:#fff;stroke-width:1.00157;stroke-linecap:square;stroke-miterlimit:4;stroke-dasharray:none" d="M160 15a15 15 0 0 1-14.4 15" transform="translate(-99.5 .5)"/>
  <path style="fill:none;stroke:#fff;stroke-width:1.00157;stroke-linecap:square;stroke-miterlimit:4;stroke-dasharray:none" d="M160-45a15 15 0 0 1-14.5 15" transform="matrix(1 0 0 -1 -99.5 .5)"/>
  <path style="fill:none;stroke:#fff;stroke-width:1px;stroke-linecap:butt;stroke-linejoin:miter;stroke-opacity:1" d="M160 45v15h-15V45v15h-15V45" transform="translate(-99.5 .5)"/>
  <g style="stroke:#fff">
    <path style="fill:none;stroke:#fff;stroke-width:1px;stroke-linecap:butt;stroke-linejoin:miter;stroke-opacity:1" d="M175 45v15" transform="translate(-114.5 .5)"/>
    <path style="fill:none;stroke:#fff;stroke-width:1.00157;stroke-linecap:square;stroke-miterlimit:4;stroke-dasharray:none" d="M190 30a15 15 0 0 1-15 15m30-15a30 30 0 0 1-30 30" transform="translate(-114.5 .5)"/>
    <path style="fill:none;stroke:#fff;stroke-width:1px;stroke-linecap:butt;stroke-linejoin:miter;stroke-opacity:1" d="M205 30V0h-30v30h15" transform="translate(-114.5 .5)"/>
  </g>
  <g style="stroke:#fff">
    <path style="fill:none;stroke:#fff;stroke-width:1px;stroke-linecap:butt;stroke-linejoin:miter;stroke-opacity:1" d="M175 45v15" transform="translate(-84.5 .5)"/>
    <path style="fill:none;stroke:#fff;stroke-width:1.00157;stroke-linecap:square;stroke-miterlimit:4;stroke-dasharray:none" d="M190 30a15 15 0 0 1-15 15m30-15a30 30 0 0 1-30 30" transform="translate(-84.5 .5)"/>
    <path style="fill:none;stroke:#fff;stroke-width:1px;stroke-linecap:butt;stroke-linejoin:miter;stroke-opacity:1" d="M205 30V0h-30v30h15" transform="translate(-84.5 .5)"/>
  </g>
  <path style="fill:none;stroke:#fff;stroke-width:1px;stroke-linecap:butt;stroke-linejoin:miter;stroke-opacity:1" d="M160 15h15m45 0h-15" transform="translate(-99.5 .5)"/>
</svg>
